<?xml version="1.0" standalone="no"?>
<!DOCTYPE svg PUBLIC "-//W3C//DTD SVG 20010904//EN"
 "http://www.w3.org/TR/2001/REC-SVG-20010904/DTD/svg10.dtd">
<svg version="1.0" xmlns="http://www.w3.org/2000/svg"
 width="445.000000pt" height="213.000000pt" viewBox="0 0 445.000000 213.000000"
 preserveAspectRatio="xMidYMid meet">

<g transform="translate(0.000000,213.000000) scale(0.100000,-0.100000)"
fill="#000000" stroke="none">
<path d="M420 1930 c0 -5 -9 -10 -20 -10 -11 0 -20 -4 -20 -10 0 -5 -9 -10
-21 -10 -11 0 -17 -4 -14 -10 3 -5 1 -10 -5 -10 -16 0 -40 -26 -40 -42 0 -8
-9 -20 -20 -28 -11 -8 -20 -22 -20 -32 0 -10 -4 -18 -10 -18 -5 0 -10 -18 -10
-40 0 -22 -4 -40 -10 -40 -6 0 -10 -37 -10 -90 0 -53 -4 -90 -10 -90 -5 0 -10
-18 -10 -40 0 -22 5 -40 10 -40 6 0 10 -122 10 -345 0 -223 -4 -345 -10 -345
-6 0 -10 -45 -10 -115 0 -70 4 -115 10 -115 6 0 10 -16 10 -36 0 -21 4 -33 10
-29 5 3 10 -1 10 -10 0 -20 64 -85 85 -85 8 0 15 -4 15 -10 0 -5 18 -10 40
-10 22 0 40 -4 40 -10 0 -6 107 -10 300 -10 193 0 300 4 300 10 0 6 18 10 40
10 22 0 40 5 40 10 0 6 18 10 40 10 22 0 40 5 40 10 0 6 9 10 20 10 11 0 20 5
20 10 0 6 7 10 16 10 9 0 29 14 44 30 15 17 35 30 44 30 9 0 16 7 16 16 0 9
14 29 30 44 17 15 30 35 30 44 0 9 5 16 10 16 6 0 10 9 10 20 0 11 5 20 10 20
6 0 10 14 10 30 0 17 5 30 10 30 6 0 10 23 10 50 0 28 5 50 10 50 6 0 10 23
10 50 0 28 -4 50 -10 50 -5 0 -10 23 -10 50 0 28 -4 50 -10 50 -5 0 -10 14
-10 30 0 17 -4 30 -10 30 -5 0 -10 18 -10 40 0 22 5 40 10 40 6 0 10 18 10 40
0 22 5 40 10 40 6 0 10 18 10 40 0 25 -5 40 -12 40 -9 0 -8 4 2 10 10 6 11 10
3 10 -8 0 -13 15 -13 39 0 22 -4 43 -10 46 -5 3 -10 22 -10 41 0 19 -4 34 -10
34 -5 0 -10 8 -10 18 0 10 -9 24 -20 32 -11 8 -20 21 -20 30 0 9 -9 22 -20 30
-15 11 -20 26 -20 62 0 26 -4 50 -10 53 -5 3 -10 22 -10 41 0 19 -4 34 -10 34
-5 0 -10 8 -10 18 0 10 -9 24 -20 32 -11 8 -20 20 -20 28 0 7 -11 24 -25 38
-14 14 -25 20 -25 13 0 -7 -8 -2 -19 9 -10 12 -26 22 -35 22 -9 0 -16 5 -16
10 0 6 -30 10 -70 10 -40 0 -70 -4 -70 -10 0 -5 -9 -10 -20 -10 -11 0 -20 -4
-20 -10 0 -5 -6 -10 -12 -10 -19 0 -68 -45 -68 -61 0 -8 -9 -21 -20 -29 -11
-8 -20 -22 -20 -32 0 -10 -4 -18 -10 -18 -5 0 -10 -9 -10 -21 0 -16 -5 -20
-27 -17 -22 2 -29 9 -31 31 -2 15 -8 27 -13 27 -5 0 -9 8 -9 18 0 10 -9 24
-20 32 -11 8 -20 20 -20 28 0 16 -24 42 -40 42 -6 0 -8 5 -5 10 3 6 -3 10 -14
10 -12 0 -21 5 -21 10 0 6 -9 10 -20 10 -11 0 -20 5 -20 10 0 6 -30 10 -70 10
-40 0 -70 -4 -70 -10z m140 -120 c0 -5 9 -10 20 -10 11 0 20 -4 20 -10 0 -5 7
-10 15 -10 20 0 65 -45 65 -65 0 -13 -22 -15 -160 -15 -100 0 -160 -4 -160
-10 0 -5 -11 -10 -25 -10 -19 0 -23 4 -18 17 10 26 90 103 108 103 8 0 15 5
15 10 0 6 27 10 60 10 33 0 60 -4 60 -10z m560 -20 c0 -5 9 -10 20 -10 11 0
20 -4 20 -10 0 -5 7 -10 16 -10 18 0 76 -58 69 -69 -2 -4 5 -14 16 -21 20 -15
27 -70 9 -70 -5 0 -10 5 -10 10 0 6 -7 10 -16 10 -8 0 -12 5 -9 10 4 6 -7 10
-24 10 -17 0 -31 5 -31 10 0 6 -13 10 -30 10 -16 0 -30 5 -30 10 0 6 -18 10
-40 10 -22 0 -40 5 -40 10 0 6 -30 10 -70 10 -38 0 -70 2 -70 5 0 13 71 75 85
75 8 0 15 5 15 10 0 6 27 10 60 10 33 0 60 -4 60 -10z m-200 -280 c0 -6 30
-10 70 -10 40 0 70 -4 70 -10 0 -5 14 -10 30 -10 17 0 30 -4 30 -10 0 -5 7
-10 15 -10 20 0 85 -65 85 -85 0 -8 5 -15 10 -15 6 0 10 -11 10 -25 0 -14 5
-25 10 -25 6 0 10 -32 10 -75 0 -43 -4 -75 -10 -75 -5 0 -10 -9 -10 -20 0 -11
-4 -20 -10 -20 -5 0 -10 -8 -10 -18 0 -10 -9 -24 -20 -32 -28 -20 -25 -37 10
-70 17 -15 30 -35 30 -44 0 -9 5 -16 10 -16 6 0 10 -9 10 -20 0 -11 5 -20 10
-20 6 0 10 -37 10 -90 0 -53 -4 -90 -10 -90 -5 0 -10 -13 -10 -28 0 -16 -8
-34 -20 -42 -11 -8 -20 -20 -20 -28 0 -18 -46 -62 -65 -62 -8 0 -15 -3 -15 -7
0 -11 -50 -33 -72 -33 -10 0 -18 -4 -18 -10 0 -6 -115 -10 -325 -10 l-325 0 0
160 c0 100 4 160 10 160 6 0 10 83 10 230 0 147 -4 230 -10 230 -15 0 -13 207
3 225 10 12 59 14 260 15 158 0 247 -4 247 -10z"/>
<path d="M720 1226 c0 -85 1 -86 87 -86 47 0 72 4 68 10 -4 6 5 10 19 10 19 0
26 5 26 19 0 11 6 22 13 25 10 5 10 7 0 12 -7 3 -13 14 -13 25 0 12 -7 19 -20
19 -11 0 -20 5 -20 10 0 6 -33 10 -80 10 l-80 0 0 -54z"/>
<path d="M733 885 c-15 -17 -17 -105 -3 -105 6 0 10 -9 10 -20 0 -18 7 -20 80
-20 47 0 80 4 80 10 0 6 9 10 20 10 15 0 20 7 20 26 0 14 4 23 10 19 6 -3 10
3 10 15 0 12 -4 18 -10 15 -6 -4 -10 5 -10 19 0 19 -5 26 -20 26 -11 0 -20 5
-20 10 0 16 -153 12 -167 -5z"/>
<path d="M2980 1710 c0 -6 -40 -10 -100 -10 -60 0 -100 -4 -100 -10 0 -5 -7
-10 -16 -10 -20 0 -96 -78 -88 -91 3 -5 0 -9 -5 -9 -6 0 -11 -13 -11 -30 0
-16 -4 -30 -10 -30 -6 0 -10 -30 -10 -70 0 -63 -2 -70 -20 -70 -11 0 -20 5
-20 10 0 6 -43 10 -110 10 -67 0 -110 4 -110 10 0 6 -37 10 -90 10 -53 0 -90
-4 -90 -10 0 -5 -22 -10 -50 -10 -27 0 -50 -4 -50 -10 0 -5 -13 -10 -30 -10
-16 0 -30 -4 -30 -10 0 -5 -9 -10 -20 -10 -11 0 -20 -4 -20 -10 0 -5 -7 -10
-15 -10 -8 0 -15 -4 -15 -10 0 -5 -5 -10 -11 -10 -15 0 -139 -130 -139 -146 0
-8 -4 -14 -10 -14 -5 0 -10 -9 -10 -20 0 -11 -3 -20 -8 -20 -10 0 -32 -73 -32
-105 0 -14 -4 -25 -10 -25 -6 0 -10 -52 -10 -135 0 -83 4 -135 10 -135 6 0 10
-18 10 -40 0 -22 5 -40 10 -40 6 0 10 -13 10 -30 0 -16 5 -30 10 -30 6 0 10
-8 10 -18 0 -10 9 -24 20 -32 11 -8 20 -20 20 -27 0 -17 106 -123 123 -123 7
0 19 -9 27 -20 8 -11 22 -20 32 -20 10 0 18 -4 18 -10 0 -5 18 -10 40 -10 22
0 40 -4 40 -10 0 -5 18 -10 40 -10 22 0 40 -4 40 -10 0 -6 27 -10 60 -10 33 0
60 4 60 10 0 6 73 10 200 10 127 0 200 4 200 10 0 6 27 10 60 10 33 0 60 -4
60 -10 0 -6 60 -10 160 -10 100 0 160 4 160 10 0 6 16 10 36 10 21 0 33 4 29
10 -3 6 3 10 14 10 12 0 21 -4 21 -10 0 -5 18 -10 40 -10 22 0 40 -4 40 -10 0
-6 50 -10 130 -10 80 0 130 4 130 10 0 6 18 10 40 10 22 0 40 5 40 10 0 6 9
10 20 10 11 0 20 5 20 10 0 6 7 10 16 10 20 0 44 24 44 44 0 9 5 16 10 16 6 0
10 14 10 30 0 17 5 30 10 30 6 0 10 23 10 50 0 28 -4 50 -10 50 -5 0 -10 14
-10 30 0 17 -4 30 -10 30 -5 0 -10 9 -10 19 0 11 -6 21 -12 24 -9 3 -6 11 10
24 12 11 22 28 22 37 0 9 5 16 10 16 6 0 10 14 10 30 0 17 5 30 10 30 6 0 10
18 10 40 0 22 5 40 10 40 6 0 10 30 10 70 0 40 -4 70 -10 70 -5 0 -10 23 -10
50 0 28 -4 50 -10 50 -5 0 -10 9 -10 20 0 11 -4 20 -10 20 -5 0 -10 8 -10 18
0 10 -9 24 -20 32 -11 8 -20 20 -20 28 0 17 -45 62 -62 62 -8 0 -20 9 -28 20
-8 11 -22 20 -32 20 -10 0 -18 5 -18 10 0 6 -13 10 -30 10 -16 0 -30 5 -30 10
0 6 -22 10 -50 10 -27 0 -50 5 -50 10 0 6 -22 10 -50 10 l-50 0 0 59 c0 33 -4
61 -10 63 -5 2 -10 20 -12 40 -1 20 -6 34 -10 32 -4 -3 -8 0 -8 7 0 20 -73 79
-97 79 -13 0 -23 5 -23 10 0 6 -43 10 -110 10 -67 0 -110 -4 -110 -10z m180
-330 c0 -87 -4 -140 -10 -140 -5 0 -10 -18 -10 -40 0 -32 4 -40 18 -40 10 0
24 9 32 20 8 12 26 20 42 20 15 0 28 5 28 10 0 6 47 10 120 10 73 0 120 -4
120 -10 0 -5 9 -10 20 -10 11 0 20 -4 20 -10 0 -5 7 -10 15 -10 23 0 85 -66
85 -90 0 -12 5 -18 10 -15 6 4 10 -30 10 -94 0 -61 -4 -101 -10 -101 -5 0 -10
-9 -10 -20 0 -11 -4 -20 -10 -20 -5 0 -10 -7 -10 -15 0 -18 -64 -85 -80 -85
-6 0 -18 -7 -27 -15 -14 -14 -13 -18 6 -34 12 -10 21 -23 21 -30 0 -6 5 -11
10 -11 6 0 10 -6 10 -13 0 -7 9 -19 20 -27 11 -8 20 -22 20 -32 0 -10 5 -18
10 -18 6 0 10 -13 10 -30 l0 -30 -146 0 c-149 0 -174 6 -174 42 0 8 -9 20 -20
28 -11 8 -20 20 -20 28 0 27 -48 62 -85 62 l-35 0 0 -80 0 -80 -140 0 -140 0
0 290 c0 187 -4 290 -10 290 -6 0 -10 80 -10 220 l0 220 160 0 160 0 0 -140z
m-760 -170 c0 -5 9 -10 19 -10 11 0 22 -6 25 -12 5 -10 7 -10 12 0 7 15 184
17 184 2 0 -5 16 -10 36 -10 19 0 42 -6 50 -14 16 -16 20 -61 4 -51 -6 4 -10
-27 -10 -84 0 -54 -4 -91 -10 -91 -6 0 -10 -30 -10 -70 0 -40 4 -70 10 -70 6
0 10 -57 10 -150 l0 -150 -140 0 c-133 0 -140 1 -140 20 0 11 -4 20 -10 20 -5
0 -10 -4 -10 -10 0 -5 -9 -10 -20 -10 -11 0 -20 -4 -20 -10 0 -5 -9 -10 -20
-10 -11 0 -20 -4 -20 -10 0 -6 -33 -10 -80 -10 -47 0 -80 4 -80 10 0 6 -13 10
-30 10 -16 0 -30 5 -30 10 0 6 -7 10 -15 10 -20 0 -125 105 -125 125 0 8 -4
15 -10 15 -5 0 -10 9 -10 20 0 11 -4 20 -10 20 -5 0 -10 18 -10 40 0 22 -4 40
-10 40 -6 0 -10 30 -10 70 0 40 4 70 10 70 6 0 10 18 10 40 0 22 5 40 10 40 6
0 10 13 10 28 0 16 8 34 20 42 11 8 20 20 20 28 0 17 45 62 62 62 8 0 20 9 28
20 8 12 26 20 42 20 15 0 28 5 28 10 0 6 47 10 120 10 73 0 120 -4 120 -10z"/>
<path d="M3240 990 c0 -5 -7 -10 -15 -10 -20 0 -65 -44 -65 -64 0 -8 -6 -17
-12 -20 -10 -5 -10 -7 0 -12 6 -3 12 -14 12 -25 0 -17 8 -19 60 -19 33 0 60 4
60 10 0 6 9 10 20 10 13 0 20 7 20 20 0 11 5 20 10 20 20 0 9 48 -16 74 -26
25 -74 36 -74 16z"/>
<path d="M2253 945 c-28 -30 -33 -42 -33 -85 0 -44 4 -55 35 -85 28 -29 42
-35 75 -35 43 0 90 33 90 65 0 8 5 15 10 15 6 0 10 18 10 40 0 22 -4 40 -10
40 -5 0 -10 7 -10 16 0 8 -6 22 -14 30 -8 8 -22 14 -30 14 -9 0 -16 5 -16 10
0 6 -17 10 -37 9 -30 0 -45 -8 -70 -34z"/>
</g>
</svg>
